<svg width="30" height="30" viewBox="0 0 30 30" fill="none" xmlns="http://www.w3.org/2000/svg">
<g clip-path="url(#clip0_720_17)">
<path d="M27.2137 0H2.78531C2.20016 0 1.76116 0.495157 1.81278 1.08024L4.04402 26.0838C4.0957 26.6684 4.60138 27.2804 5.16856 27.4384L13.9644 29.8816C14.5308 30.0386 15.4566 30.0396 16.0238 29.8837L24.8305 27.4438C25.3979 27.2863 25.9035 26.6799 25.9552 26.0943L28.1873 1.08024C28.239 0.495157 27.8018 0 27.2137 0ZM22.9771 9.02558C22.9768 9.0294 22.9738 9.0324 22.97 9.03303C22.9662 9.03367 22.9625 9.0317 22.9608 9.02813L16.0695 11.8522C15.9714 11.8924 15.9154 11.9965 15.9358 12.1005C15.9563 12.2046 16.0476 12.2797 16.1537 12.2797H21.514C21.7992 12.2797 22.0708 12.4008 22.2615 12.6128C22.4522 12.8249 22.5438 13.1079 22.5135 13.3914L21.676 21.2482C21.6349 21.6337 21.3759 21.9612 21.0101 22.0898L15.3206 24.0918C15.1063 24.1672 14.8727 24.1678 14.6579 24.0934L8.99495 22.1317C8.62701 22.0043 8.36582 21.6758 8.32446 21.2886L7.94479 17.7304C7.92484 17.5436 7.9852 17.3571 8.11075 17.2175C8.23638 17.0778 8.41534 16.998 8.60323 16.998H10.1791C10.5177 16.998 10.8017 17.2534 10.8375 17.59L11.0705 19.7772L14.9915 21.1401L18.9305 19.7647L19.4123 15.2287H8.27506C7.93746 15.2287 7.6539 14.9747 7.61687 14.6392L7.40483 12.7167C7.37245 12.4234 7.5379 12.1442 7.81056 12.0318L14.9385 9.09307C15.0194 9.05974 15.0653 8.97402 15.0484 8.88823C15.0314 8.8025 14.9562 8.74075 14.8688 8.74075H7.3641C7.13816 8.74075 6.94867 8.57013 6.92509 8.34552L6.70801 6.27917C6.69495 6.15483 6.73529 6.03073 6.81897 5.93774C6.90266 5.84482 7.02191 5.79173 7.14695 5.79173H22.8499C22.9757 5.79173 23.0954 5.84539 23.1792 5.93915C23.2629 6.03296 23.3027 6.15801 23.2885 6.28293L22.9771 9.02558Z" fill="white"/>
</g>
<defs>
<clipPath id="clip0_720_17">
<rect width="30" height="30" fill="white"/>
</clipPath>
</defs>
</svg>
