<svg width="30" height="30" viewBox="0 0 30 30" fill="none" xmlns="http://www.w3.org/2000/svg">
<g clip-path="url(#clip0_720_14)">
<path d="M1.88896 0.99312L3.83602 25.9022C3.86525 26.2763 4.11844 26.5953 4.4761 26.7086L14.7216 29.9569C14.9028 30.0144 15.0973 30.0144 15.2785 29.9569L25.5239 26.7086C25.8816 26.5953 26.1348 26.2763 26.164 25.9022L28.1111 0.99312C28.1529 0.457587 27.7297 0 27.1926 0H2.80752C2.2704 0 1.84715 0.457587 1.88896 0.99312ZM23.118 8.72159H10.4286L10.8116 12.253H22.842L22.055 22.3205L15 24.5573L7.94511 22.3205L7.53396 17.0608H11.2369V19.6408L15.099 20.6773L18.938 19.6408L19.2358 15.5291H7.41421L6.62936 5.48793H23.3707L23.118 8.72159Z" fill="white"/>
</g>
<defs>
<clipPath id="clip0_720_14">
<rect width="30" height="30" fill="white"/>
</clipPath>
</defs>
</svg>
