<svg width="30" height="30" viewBox="0 0 30 30" fill="none" xmlns="http://www.w3.org/2000/svg">
<path d="M0 0H30V30H0V0Z" fill="white"/>
<path d="M20.1524 23.4376C20.7567 24.4243 21.5429 25.1495 22.9334 25.1495C24.1014 25.1495 24.8476 24.5656 24.8476 23.759C24.8476 22.7923 24.081 22.4499 22.7953 21.8876L22.0905 21.5852C20.0562 20.7185 18.7048 19.6328 18.7048 17.3375C18.7048 15.2232 20.3158 13.6137 22.8334 13.6137C24.6257 13.6137 25.9143 14.2375 26.8429 15.8709L24.6477 17.2804C24.1643 16.4137 23.6429 16.0723 22.8334 16.0723C22.0077 16.0723 21.4843 16.5961 21.4843 17.2804C21.4843 18.1261 22.0081 18.4685 23.2176 18.9923L23.9224 19.2942C26.3176 20.3213 27.67 21.3685 27.67 23.7228C27.67 26.2609 25.6762 27.6514 22.9985 27.6514C20.3805 27.6514 18.689 26.4037 17.8614 24.7685L20.1524 23.4376ZM10.1938 23.6819C10.6367 24.4676 11.0396 25.1319 12.0081 25.1319C12.9343 25.1319 13.5186 24.7695 13.5186 23.3605V13.7747H16.3377V23.3985C16.3377 26.3175 14.6263 27.6461 12.1281 27.6461C9.87096 27.6461 8.56385 26.478 7.89905 25.0711L10.1938 23.6819Z" fill="#4D65FF"/>
</svg>
