<svg width="31" height="30" viewBox="0 0 31 30" fill="none" xmlns="http://www.w3.org/2000/svg">
<g clip-path="url(#clip0_719_3)">
<path d="M15.2146 0.000245226C13.9776 0.00592883 12.7962 0.110284 11.7568 0.292218C8.6947 0.827297 8.13873 1.9472 8.13873 4.01257V6.74029H15.3748V7.64949H8.13873H5.42307C3.32008 7.64949 1.47858 8.89971 0.902639 11.2781C0.238254 14.0042 0.208811 15.7054 0.902639 18.552C1.41703 20.6708 2.64539 22.1805 4.74837 22.1805H7.23631V18.9106C7.23631 16.5482 9.30281 14.4645 11.7568 14.4645H18.9845C20.9964 14.4645 22.6025 12.8261 22.6025 10.8276V4.01257C22.6025 2.073 20.9481 0.615949 18.9845 0.292218C17.7414 0.08755 16.4516 -0.00543837 15.2146 0.000245226ZM11.3014 2.19411C12.0488 2.19411 12.6592 2.80771 12.6592 3.5621C12.6592 4.31386 12.0488 4.92177 11.3014 4.92177C10.5512 4.92177 9.94355 4.31386 9.94355 3.5621C9.94355 2.80765 10.5512 2.19411 11.3014 2.19411Z" fill="white"/>
<path d="M23.5049 7.64947V10.8276C23.5049 13.2916 21.3929 15.3654 18.9845 15.3654H11.7568C9.77704 15.3654 8.13873 17.0413 8.13873 19.0023V25.8174C8.13873 27.7569 9.84398 28.8978 11.7568 29.4543C14.0473 30.1204 16.2439 30.2408 18.9845 29.4543C20.8062 28.9326 22.6025 27.8827 22.6025 25.8174V23.0896H15.3748V22.1804H22.6025H26.2206C28.3236 22.1804 29.1072 20.7295 29.8386 18.5518C30.5941 16.3099 30.562 14.154 29.8386 11.278C29.3189 9.20725 28.3263 7.64935 26.2206 7.64935H23.5049V7.64947ZM19.4399 24.9082C20.19 24.9082 20.7977 25.5161 20.7977 26.2678C20.7977 27.0223 20.19 27.6359 19.4399 27.6359C18.6925 27.6359 18.0821 27.0223 18.0821 26.2678C18.0821 25.5161 18.6924 24.9082 19.4399 24.9082Z" fill="white"/>
</g>
<defs>
<clipPath id="clip0_719_3">
<rect width="31" height="30" fill="white"/>
</clipPath>
</defs>
</svg>
